<svg width="141" height="82" viewBox="0 0 141 82" fill="none" xmlns="http://www.w3.org/2000/svg">
<g clip-path="url(#clip0_407_1510)">
<path d="M41.0923 8.15266L11.3021 29.6415C5.06012 34.1441 3.63606 42.8737 8.12137 49.1397L8.13771 49.1625C12.623 55.4285 21.3192 56.8581 27.5612 52.3555L57.3514 30.8667C63.5933 26.3641 65.0174 17.6344 60.5321 11.3684L60.5157 11.3456C56.0304 5.07962 47.3343 3.65009 41.0923 8.15266Z" fill="#E36A5D" stroke="#1E1E1E" stroke-width="2.68827" stroke-miterlimit="10"/>
<path d="M8.13967 32.8375L8.12332 32.8603C3.63801 39.1263 5.06207 47.856 11.304 52.3586L41.0942 73.8474C47.3362 78.35 56.0324 76.9204 60.5177 70.6544L60.534 70.6316C65.0193 64.3656 63.5953 55.636 57.3533 51.1334L27.5631 29.6446C21.3212 25.142 12.625 26.5715 8.13967 32.8375Z" fill="#5A80C4" stroke="#1E1E1E" stroke-width="2.68827" stroke-miterlimit="10"/>
<path d="M113.01 29.6261L83.2201 51.1149C76.9781 55.6175 75.554 64.3471 80.0393 70.6131L80.0557 70.636C84.541 76.902 93.2372 78.3315 99.4791 73.8289L129.269 52.3401C135.511 47.8375 136.935 39.1079 132.45 32.8419L132.434 32.819C127.948 26.553 119.252 25.1235 113.01 29.6261Z" fill="#F4C152" stroke="#1E1E1E" stroke-width="2.68827" stroke-miterlimit="10"/>
<path d="M80.0537 11.3539L80.0374 11.3767C75.5521 17.6427 76.9761 26.3723 83.2181 30.8749L113.008 52.3638C119.25 56.8663 127.946 55.4368 132.432 49.1708L132.448 49.148C136.933 42.882 135.509 34.1523 129.267 29.6497L99.4772 8.16091C93.2352 3.65834 84.539 5.08787 80.0537 11.3539Z" fill="#4A8E7D" stroke="#1E1E1E" stroke-width="2.68827" stroke-miterlimit="10"/>
</g>
<defs>
<clipPath id="clip0_407_1510">
<rect width="140.571" height="82" fill="white"/>
</clipPath>
</defs>
</svg>
